<?xml version="1.0" standalone="no"?>
<!DOCTYPE svg PUBLIC "-//W3C//DTD SVG 20010904//EN"
 "http://www.w3.org/TR/2001/REC-SVG-20010904/DTD/svg10.dtd">
<svg version="1.0" xmlns="http://www.w3.org/2000/svg"
 width="1200.000000pt" height="1200.000000pt" viewBox="0 0 1200.000000 1200.000000"
 preserveAspectRatio="xMidYMid meet">
<metadata>
Created by potrace 1.11, written by Peter Selinger 2001-2013
</metadata>
<g transform="translate(0.000000,1200.000000) scale(0.100000,-0.100000)"
fill="#000000" stroke="none">
<path d="M1418 11735 c-2 -2 -30 -5 -63 -8 -276 -26 -559 -144 -785 -326 -59
-47 -186 -175 -228 -229 -123 -157 -242 -395 -277 -552 -2 -8 -10 -45 -19 -82
-8 -36 -19 -102 -23 -145 -9 -104 -9 -8718 1 -8808 16 -153 79 -363 151 -506
228 -452 697 -773 1194 -816 101 -9 8661 -9 8772 0 459 36 907 322 1148 732
75 127 158 337 174 440 3 17 8 41 11 55 3 14 8 41 12 60 6 33 14 6600 8 6600
-2 0 -118 -115 -258 -256 l-255 -256 -33 20 c-59 38 -162 89 -211 106 -110 37
-178 44 -437 44 -140 0 -276 3 -302 6 -27 3 -69 8 -95 11 -118 14 -145 18
-253 42 -136 29 -263 69 -417 129 -61 24 -156 59 -210 78 -54 19 -136 51 -183
71 -47 20 -85 36 -85 35 0 -1 -18 3 -40 9 -22 5 -55 13 -74 16 -19 3 -37 7
-40 9 -12 8 -157 19 -221 17 -81 -1 -143 -8 -225 -25 -54 -11 -146 -42 -203
-67 -34 -16 -65 -29 -68 -29 -9 0 -146 -90 -194 -128 -25 -19 716 726 1645
1657 l1690 1691 -30 26 c-16 14 -46 38 -65 53 -19 14 -37 28 -40 32 -3 3 -25
19 -50 36 -157 107 -360 193 -537 227 -43 9 -91 19 -108 22 -27 6 -8771 14
-8777 9z"/>
<path d="M11493 10849 c-118 -21 -203 -123 -203 -246 0 -27 10 -66 26 -98 76
-162 291 -190 408 -54 147 172 -6 437 -231 398z"/>
<path d="M10080 9874 c-208 -43 -394 -212 -461 -421 -28 -88 -34 -233 -13
-323 53 -227 237 -414 460 -466 260 -60 512 39 663 259 213 311 80 765 -267
911 -126 53 -252 66 -382 40z"/>
<path d="M11594 9750 c-205 -56 -297 -269 -201 -468 24 -50 80 -102 143 -133
54 -27 78 -33 132 -33 37 0 80 3 96 7 45 10 135 69 164 107 58 75 66 100 69
200 2 86 -1 100 -25 146 -36 69 -40 74 -91 116 -79 67 -181 87 -287 58z"/>
</g>
</svg>
