<?xml version="1.0" standalone="no"?>
<!DOCTYPE svg PUBLIC "-//W3C//DTD SVG 20010904//EN"
 "http://www.w3.org/TR/2001/REC-SVG-20010904/DTD/svg10.dtd">
<svg version="1.0" xmlns="http://www.w3.org/2000/svg"
 width="120.000000pt" height="120.000000pt" viewBox="0 0 120.000000 120.000000"
 preserveAspectRatio="xMidYMid meet">
<metadata>
Created by potrace 1.11, written by Peter Selinger 2001-2013
</metadata>
<g transform="translate(0.000000,120.000000) scale(0.100000,-0.100000)"
fill="#000000" stroke="none">
<path d="M1047 1094 c-14 -15 -6 -34 14 -34 14 0 19 5 17 17 -3 18 -20 27 -31
17z"/>
<path d="M1120 1085 c0 -9 5 -15 11 -13 6 2 11 8 11 13 0 5 -5 11 -11 13 -6 2
-11 -4 -11 -13z"/>
<path d="M1070 1005 c0 -22 4 -26 23 -23 14 2 22 10 22 23 0 13 -8 21 -22 23
-19 3 -23 -1 -23 -23z"/>
<path d="M918 1003 c-8 -10 -30 -44 -49 -75 l-34 -58 -351 0 c-270 0 -354 -3
-361 -12 -11 -15 -12 -747 -1 -764 6 -9 132 -12 455 -12 247 -1 456 1 466 4
16 5 17 31 17 365 l0 360 30 44 c17 24 30 50 30 59 0 25 -129 106 -168 106
-10 0 -26 -8 -34 -17z m-126 -198 c-16 -28 -255 -411 -258 -414 -3 -3 -21 11
-42 30 -20 20 -52 47 -70 62 l-33 26 -91 -33 c-51 -18 -94 -39 -96 -46 -5 -14
180 -205 221 -226 33 -18 208 -18 231 0 14 10 300 437 325 485 7 12 15 21 20
21 5 0 8 -129 7 -287 l-1 -288 -413 0 c-228 0 -416 3 -419 8 -9 15 -4 660 6
666 17 11 620 7 613 -4z"/>
</g>
</svg>
